# Blender v2.82 (sub 7) OBJ File: ''
# www.blender.org
mtllib tetraeder.mtl
o Cube
v 0.000578 0.006142 -0.993228
v 0.987501 -0.000107 0.493804
v -0.001807 1.289134 -0.008256
v -0.993279 -0.000107 0.488077
vt 0.375000 0.500000
vt 0.125000 0.750000
vt 0.375000 0.750000
vt 0.126085 0.500000
vt 0.000000 0.000000
vt 0.000000 0.000000
vt 0.000000 0.000000
vn -0.0000 1.0000 0.0042
vn -0.6302 -0.6494 -0.4256
vn 0.7650 -0.3913 0.5116
vn -0.7675 -0.3912 0.5078
vn 0.0027 -0.3611 -0.9325
usemtl Material
s off
f 1/1/1 4/2/1 2/3/1
f 3/4/2 1/1/2 2/3/2 4/2/2
f 3/4/3 4/2/3 1/1/3
f 3/4/4 1/1/4 2/3/4
f 3/5/5 2/6/5 4/7/5
